<?xml version="1.0" standalone="no"?>
<!DOCTYPE svg PUBLIC "-//W3C//DTD SVG 20010904//EN"
 "http://www.w3.org/TR/2001/REC-SVG-20010904/DTD/svg10.dtd">
<svg version="1.0" xmlns="http://www.w3.org/2000/svg"
 width="700.000000pt" height="700.000000pt" viewBox="0 0 700.000000 700.000000"
 preserveAspectRatio="xMidYMid meet">
<metadata>
Created by potrace 1.14, written by Peter Selinger 2001-2017
</metadata>
<g transform="translate(0.000000,700.000000) scale(0.100000,-0.100000)"
fill="#000000" stroke="none">
<path d="M2933 5963 c-7 -2 -13 -14 -13 -25 0 -17 -3 -18 -15 -8 -8 6 -23 9
-36 5 -20 -7 -20 -9 16 -45 l36 -37 9 -204 c5 -112 10 -253 10 -313 0 -99 -2
-108 -17 -103 -10 3 -156 52 -325 111 -295 101 -308 104 -318 85 -8 -14 -8
-20 2 -24 7 -3 155 -52 328 -111 173 -58 322 -110 331 -114 12 -7 22 -4 34 10
16 18 17 36 6 257 -6 131 -11 264 -11 297 l0 58 215 -211 c119 -116 221 -211
228 -211 53 1 37 19 -350 393 -89 85 -92 90 -99 143 -6 54 -8 57 -31 47z"/>
<path d="M4395 5455 c-115 -35 -279 -86 -363 -113 -152 -48 -153 -49 -128 -65
24 -16 33 -14 233 47 114 35 279 85 366 112 151 45 157 48 141 65 -10 11 -22
19 -28 19 -6 -1 -105 -30 -221 -65z"/>
<path d="M2241 5373 c-8 -15 24 -52 202 -231 157 -157 208 -215 198 -221 -7
-5 -116 -39 -241 -75 l-228 -67 -63 26 c-34 14 -64 25 -66 25 -2 0 -3 -11 -3
-25 0 -16 9 -29 27 -38 l27 -15 -32 -7 c-25 -5 -32 -12 -32 -31 0 -13 1 -24 3
-24 1 0 31 9 66 20 35 10 68 17 72 14 15 -9 523 -204 532 -204 5 0 7 10 5 22
-2 18 -34 34 -193 98 -104 43 -208 85 -230 95 l-40 18 40 12 c22 7 123 38 225
69 l184 56 28 -27 c26 -24 28 -25 30 -7 0 10 1 27 0 37 -1 9 3 17 8 17 5 0 16
13 25 29 l15 30 -47 -16 -47 -16 -222 226 c-122 125 -225 227 -228 227 -3 0
-10 -8 -15 -17z"/>
<path d="M3455 5328 c17 -18 50 -54 74 -80 l44 -47 -24 -9 c-13 -5 -78 -26
-145 -46 l-120 -37 -128 45 -127 45 -39 -35 c-38 -34 -40 -39 -40 -94 l0 -59
-55 -16 c-34 -9 -59 -23 -66 -36 -16 -30 -7 -33 55 -13 31 10 59 14 63 11 3
-4 8 -67 11 -141 l5 -133 -87 84 c-81 78 -106 92 -106 58 0 -7 45 -60 100
-117 l99 -103 1 -72 c0 -40 -4 -73 -9 -73 -5 0 -57 20 -116 45 l-106 44 3 -26
c3 -23 15 -31 113 -69 l110 -43 7 -53 c3 -29 6 -96 7 -149 1 -140 9 -181 37
-202 l24 -18 -5 43 c-2 24 -7 114 -10 200 l-5 156 112 -45 c62 -25 127 -52
143 -60 17 -8 122 -106 235 -218 192 -190 207 -203 230 -193 24 9 19 15 -150
178 -96 93 -171 169 -167 170 4 0 24 -7 45 -16 20 -9 142 -58 270 -110 215
-86 235 -93 255 -79 20 14 20 15 1 21 -10 4 -165 67 -344 140 l-325 133 -157
160 -156 161 -6 62 c-3 35 -7 114 -8 175 l-3 112 65 20 c36 11 101 30 144 43
l79 23 321 -109 321 -108 168 -166 c155 -155 167 -165 167 -137 0 25 -21 50
-117 149 -65 65 -109 116 -98 112 160 -57 196 -68 201 -63 3 3 3 15 -1 26 -5
15 -38 31 -150 68 l-145 47 -146 147 -147 147 104 32 c57 17 111 33 119 36 11
4 8 9 -12 20 -26 13 -37 12 -133 -18 l-106 -32 -72 72 c-57 56 -79 72 -102 72
l-29 0 29 -32z m-362 -197 c48 -16 92 -33 98 -37 11 -6 -157 -63 -188 -64 -9
0 -13 19 -13 65 0 36 4 65 8 65 5 0 47 -13 95 -29z m642 -92 c66 -67 113 -120
105 -117 -132 42 -479 162 -476 166 7 6 219 71 236 71 8 1 69 -54 135 -120z
m-529 -677 c-2 -1 -44 14 -94 34 -98 40 -102 44 -102 124 l0 45 100 -100 c54
-54 98 -101 96 -103z"/>
<path d="M4276 4751 c4 -14 7 -26 8 -27 1 -1 148 -50 329 -110 312 -104 327
-109 327 -87 0 12 -5 25 -10 28 -17 11 -302 109 -487 168 l-173 55 6 -27z"/>
<path d="M4288 4519 c-3 -20 41 -70 251 -286 140 -144 257 -260 261 -258 4 3
10 13 13 24 3 14 -58 81 -258 281 -229 229 -264 260 -267 239z"/>
<path d="M4020 4000 c-8 -5 -12 -11 -9 -14 2 -3 70 -32 149 -64 312 -128 333
-137 314 -140 -10 -2 -134 -23 -274 -46 l-255 -44 -80 84 c-73 76 -82 82 -104
73 -24 -10 -24 -11 49 -84 41 -41 72 -77 69 -79 -5 -5 -319 -56 -494 -80 -60
-9 -155 -22 -210 -31 -55 -8 -105 -15 -111 -15 -14 0 -27 151 -26 291 1 90 0
97 -24 120 l-25 23 7 -221 c7 -211 6 -221 -12 -226 -10 -3 -104 -18 -209 -33
-104 -14 -193 -30 -198 -33 -4 -4 4 -13 18 -21 22 -12 49 -10 203 13 97 15
184 27 194 27 14 0 16 -17 19 -130 3 -103 7 -133 19 -140 23 -14 27 19 22 156
l-5 122 29 6 c32 7 719 111 802 122 l54 7 147 -147 c123 -123 149 -145 160
-133 10 12 -11 38 -120 151 -81 84 -126 138 -118 140 8 3 122 22 254 42 235
37 345 46 375 32 11 -6 23 4 44 33 15 22 27 42 25 44 -2 2 -25 -1 -52 -6 -45
-8 -56 -5 -319 101 -149 61 -276 110 -282 110 -6 0 -18 -4 -26 -10z"/>
<path d="M2309 2631 c-51 -51 -34 -110 37 -125 56 -12 109 61 68 95 -9 7 -20
23 -25 36 -12 32 -44 29 -80 -6z"/>
<path d="M4579 2631 c-51 -52 -34 -111 38 -124 60 -12 110 58 67 94 -9 7 -20
23 -25 36 -12 32 -44 29 -80 -6z"/>
<path d="M1340 2562 c-40 -12 -68 -29 -106 -66 -59 -58 -74 -104 -74 -226 l0
-68 -40 -7 c-38 -6 -39 -8 -37 -43 2 -35 4 -37 37 -37 l35 0 0 -280 0 -280 30
-58 c18 -37 40 -64 58 -74 16 -8 30 -13 32 -11 11 14 25 50 25 68 0 12 4 19 9
15 5 -3 12 -1 15 4 4 5 1 128 -5 273 -6 145 -8 291 -4 325 l6 61 45 15 44 14
-1 -146 c0 -192 0 -202 13 -299 12 -97 37 -136 98 -152 56 -15 83 -5 135 51
46 49 65 55 65 20 0 -36 85 -91 142 -91 10 0 36 11 57 25 37 23 41 23 70 9
119 -60 281 45 281 181 0 84 -23 132 -100 210 -96 98 -95 140 5 184 28 12 41
25 42 39 2 27 -12 28 -99 6 -132 -32 -178 -73 -178 -159 0 -47 12 -68 72 -132
54 -58 78 -106 78 -155 0 -28 -6 -37 -40 -55 -48 -28 -64 -29 -106 -2 -19 11
-34 16 -34 11 0 -5 7 -12 15 -16 8 -3 15 -10 15 -15 0 -6 -7 -8 -16 -4 -13 5
-15 -1 -12 -28 2 -28 0 -34 -17 -34 -19 0 -20 7 -22 205 -1 113 -5 245 -9 293
-6 77 -9 88 -24 84 -9 -2 -24 -1 -32 4 -10 5 -31 3 -54 -5 l-39 -13 0 -206 c0
-226 -1 -231 -68 -281 l-27 -20 -23 22 c-21 22 -22 27 -19 217 3 202 1 217
-41 263 -15 16 -32 22 -64 22 -24 0 -43 5 -43 11 0 6 -8 8 -17 5 -10 -2 -33
-8 -52 -11 l-34 -7 6 68 c3 38 14 94 24 124 16 49 24 58 66 81 45 24 47 27 32
43 -9 9 -20 16 -25 16 -5 0 -7 7 -4 15 8 19 -14 18 -86 -3z m19 -16 c-2 -2
-15 -9 -29 -16 -23 -12 -24 -12 -11 3 7 10 20 17 29 17 8 0 13 -2 11 -4z m723
-628 c11 -16 18 -31 15 -34 -3 -3 -20 16 -38 43 -34 50 -14 42 23 -9z m-515
-284 c-3 -3 -12 -4 -19 -1 -8 3 -5 6 6 6 11 1 17 -2 13 -5z"/>
<path d="M3956 2515 c-3 -9 -6 -33 -7 -53 -1 -33 -2 -34 -8 -12 -7 23 -8 21
-15 -16 -4 -22 -6 -45 -5 -50 6 -34 -3 -42 -58 -50 -41 -6 -58 -13 -58 -24 0
-10 12 -16 39 -18 29 -3 36 -6 25 -13 -10 -6 -3 -9 23 -9 l36 0 -5 -262 c-5
-227 -4 -271 11 -320 9 -31 25 -63 35 -70 10 -7 23 -23 30 -35 19 -36 80 -31
158 12 35 19 66 35 68 35 3 0 5 -8 5 -18 0 -10 7 -27 15 -39 13 -19 19 -20 51
-11 20 5 42 7 50 4 29 -11 47 59 40 154 -14 201 -11 261 17 320 21 45 36 61
81 88 52 31 96 42 96 23 0 -5 -9 -7 -20 -4 -11 3 -34 -4 -52 -16 -22 -13 -27
-21 -16 -21 9 0 20 5 23 10 3 6 20 10 36 10 l30 0 -8 -132 c-12 -192 -9 -329
6 -356 7 -13 32 -32 56 -42 40 -17 50 -18 94 -6 27 7 64 25 82 40 l33 28 9
-26 c5 -15 15 -25 22 -24 8 2 20 -6 28 -17 14 -19 17 -19 49 -3 l35 16 6 108
c4 59 7 146 7 194 0 76 4 94 30 146 34 68 104 144 120 128 13 -13 13 -31 2
-204 -18 -272 10 -386 98 -405 27 -6 96 21 144 57 16 13 24 12 66 -11 43 -23
51 -24 88 -13 30 9 50 25 79 65 l38 52 3 -49 c2 -33 -1 -52 -10 -57 -104 -62
-205 -155 -237 -218 -12 -22 -21 -59 -21 -83 0 -46 31 -108 53 -108 8 0 22 -9
32 -20 21 -23 27 -22 130 22 78 34 102 57 146 143 26 49 33 78 42 170 11 116
21 146 41 121 20 -27 95 -58 140 -58 102 -2 206 94 206 190 0 90 -19 131 -95
211 -40 42 -76 87 -80 99 -9 30 24 67 77 89 38 15 57 50 33 60 -19 7 -140 -24
-193 -49 -56 -26 -76 -65 -70 -134 4 -48 10 -58 63 -115 66 -72 85 -110 85
-172 0 -50 -22 -77 -61 -77 -49 0 -51 14 -9 55 66 65 49 75 -34 20 -33 -23
-59 -33 -69 -29 -13 5 -16 2 -11 -10 3 -9 2 -16 -3 -16 -5 0 -14 97 -21 216
-9 181 -14 219 -28 235 -10 11 -23 18 -29 15 -6 -2 -22 5 -36 15 -45 35 -59
26 -60 -38 0 -49 -2 -54 -10 -33 -22 55 -92 99 -154 97 -47 -1 -76 -37 -113
-139 -22 -62 -26 -89 -26 -183 1 -77 6 -123 17 -154 19 -49 16 -61 -16 -61
-51 1 -52 4 -58 242 -3 123 -9 233 -14 246 -10 30 -74 62 -125 62 -50 0 -96
-39 -139 -119 l-30 -55 -7 63 c-6 54 -11 65 -39 87 -20 15 -45 24 -68 24 l-37
0 0 -263 0 -263 -36 -18 c-20 -9 -38 -15 -40 -14 -6 6 -23 217 -29 358 -5 111
-9 147 -21 153 -8 4 -14 14 -14 21 0 30 -69 35 -94 7 -16 -17 -20 -18 -44 -5
-48 25 -96 18 -146 -21 -54 -41 -56 -41 -56 -16 0 11 -14 31 -30 45 -26 22
-34 24 -55 14 -14 -6 -25 -17 -25 -25 0 -7 -6 -13 -12 -13 -10 0 -13 -56 -12
-250 l1 -251 -37 -19 c-73 -37 -84 -6 -100 297 -5 100 -12 211 -16 246 l-7 65
79 7 c82 7 158 25 137 32 -7 3 -13 11 -13 18 0 19 -28 23 -123 18 l-85 -5 -7
49 c-11 86 -71 164 -89 118z m1599 -383 c6 -4 32 -50 58 -102 43 -88 47 -101
47 -171 0 -72 -1 -76 -32 -106 -67 -63 -91 -61 -104 6 -5 25 -9 29 -20 20 -18
-15 -19 12 -3 43 6 12 13 83 15 160 3 155 8 173 39 150z m465 -246 c0 -15 -34
21 -53 56 -18 32 -18 32 17 -7 20 -22 36 -44 36 -49z m-1945 -212 c11 -17 12
-25 4 -22 -6 2 -16 14 -20 26 -11 29 -5 28 16 -4z m1604 -166 c0 -63 -17 -99
-83 -183 -49 -62 -64 -75 -88 -75 -34 0 -68 31 -68 63 0 26 45 101 81 134 27
25 140 101 152 102 4 1 7 -18 6 -41z"/>
<path d="M2672 2220 c-27 -16 -59 -44 -70 -62 -60 -98 -79 -321 -37 -431 5
-11 -5 -22 -35 -37 -23 -12 -44 -19 -46 -17 -8 8 -22 173 -29 340 -7 151 -9
159 -33 187 -49 55 -115 28 -117 -48 -19 -519 -20 -512 55 -550 42 -20 49 -21
97 -9 27 7 68 28 89 45 21 18 43 32 47 32 5 0 25 -14 44 -31 20 -17 50 -38 69
-46 32 -16 36 -15 95 10 39 17 57 21 49 11 -16 -19 -10 -25 18 -17 29 7 91
112 105 178 13 62 12 199 -3 268 -13 62 -71 152 -112 173 -33 17 -75 21 -102
9 -13 -6 -17 -5 -13 2 15 24 -23 20 -71 -7z m169 -76 c23 -25 24 -29 24 -192
-1 -172 -11 -237 -43 -280 -17 -21 -19 -22 -48 -7 -51 25 -58 53 -62 235 -3
191 7 250 48 261 44 12 56 10 81 -17z"/>
<path d="M3715 2221 c-123 -34 -165 -73 -165 -156 0 -47 12 -68 72 -132 48
-52 78 -106 78 -140 -1 -17 -95 -83 -119 -83 -7 0 -23 7 -36 16 -14 9 -25 12
-25 6 0 -5 7 -12 15 -16 8 -3 15 -10 15 -16 0 -6 -5 -8 -11 -4 -6 3 -14 2 -18
-4 -4 -7 -12 -8 -21 -2 -12 8 -16 51 -21 232 -3 123 -9 233 -14 246 -10 30
-74 62 -125 62 -50 0 -96 -39 -139 -119 l-30 -55 -7 63 c-6 54 -11 65 -39 87
-20 15 -45 24 -68 24 l-37 0 0 -258 c0 -204 3 -269 15 -311 11 -34 21 -51 30
-49 8 2 20 -6 28 -17 14 -19 17 -19 49 -3 l35 16 6 108 c4 59 7 146 7 193 0
70 5 96 24 138 24 51 100 143 118 143 18 0 26 -47 17 -96 -5 -27 -10 -126 -10
-219 -1 -138 2 -178 15 -210 38 -89 86 -110 164 -71 47 24 52 25 81 10 119
-59 281 45 281 180 0 90 -16 124 -95 206 -46 47 -74 85 -77 102 -4 33 23 63
77 87 28 12 41 25 42 39 2 27 -23 27 -112 3z m-23 -303 c11 -16 18 -31 15 -34
-3 -3 -20 16 -38 43 -34 50 -14 42 23 -9z m-7 -208 c-10 -11 -23 -20 -28 -20
-6 0 1 10 14 23 29 28 40 25 14 -3z"/>
<path d="M2810 1580 c0 -5 5 -10 10 -10 6 0 10 5 10 10 0 6 -4 10 -10 10 -5 0
-10 -4 -10 -10z"/>
<path d="M3758 1451 c-92 -9 -170 -20 -174 -24 -4 -4 -3 -12 3 -18 8 -8 81
-10 250 -5 276 7 313 11 313 36 0 34 -122 38 -392 11z"/>
<path d="M3248 1445 c-3 -3 -113 -8 -245 -10 -201 -2 -238 -5 -241 -18 -4 -21
33 -26 248 -33 237 -9 408 12 374 46 -12 12 -126 25 -136 15z"/>
<path d="M4610 1440 c-102 -4 -125 -8 -125 -20 0 -22 77 -28 381 -29 273 -1
306 4 291 43 -6 14 -29 16 -214 14 -114 -1 -264 -5 -333 -8z"/>
<path d="M2280 1400 c-36 -5 -155 -11 -265 -15 -110 -4 -209 -12 -220 -18 -19
-10 -18 -11 10 -23 60 -26 474 -13 615 19 38 9 56 18 58 30 3 15 -5 17 -65 15
-37 0 -97 -4 -133 -8z"/>
<path d="M955 1374 c-11 -2 -46 -6 -77 -9 -37 -4 -58 -11 -58 -19 0 -10 56
-14 243 -19 297 -7 437 5 437 39 0 12 -41 14 -262 13 -145 -1 -272 -3 -283 -5z"/>
</g>
</svg>
