<svg xmlns="http://www.w3.org/2000/svg" version="1.1" xmlns:xlink="http://www.w3.org/1999/xlink" xmlns:svgjs="http://svgjs.com/svgjs" width="300" height="300"><svg width="300" height="300" viewBox="0 0 300 300" fill="none" xmlns="http://www.w3.org/2000/svg">
<rect x="5" y="5" width="290" height="290" fill="#FFAE1B"></rect>
<rect x="5" y="5" width="290" height="290" stroke="black" stroke-width="10"></rect>
<path d="M63.5352 240.89C64.4952 240.92 64.5952 242.02 63.7252 242.24C54.9652 244.42 44.8352 242.23 35.7652 243.08C34.8652 243.16 34.7052 241.9 35.5752 241.77C44.4852 240.51 54.5252 240.61 63.5352 240.89ZM87.9152 240.8C84.6752 240.93 79.8552 240.24 76.7952 241.4C76.6752 241.4 76.5652 241.46 76.4852 241.53C76.4052 241.59 76.3752 241.68 76.3652 241.76C76.3652 241.77 76.3652 241.79 76.3652 241.8C76.3652 241.81 76.3652 241.83 76.3652 241.84C76.3652 241.93 76.4052 242.01 76.4752 242.08C76.5452 242.16 76.6552 242.22 76.7752 242.23C79.8052 243.5 84.6652 242.9 87.8752 242.9C93.7552 242.89 100.175 242.49 105.795 241.09C106.765 240.85 106.695 239.52 105.575 239.55C99.6752 239.71 93.8252 240.56 87.9152 240.8ZM132.615 238.51C128.105 238.71 123.555 238.66 119.045 238.47C117.825 238.42 117.885 239.85 119.015 239.99C126.915 241.02 136.735 241.6 144.475 239.77C145.545 239.52 145.295 238.34 144.255 238.23C140.415 237.82 136.475 238.34 132.615 238.51ZM154.335 238.52C153.285 238.58 153.235 239.81 154.305 239.89C161.565 240.38 170.115 240.16 177.265 239.06C178.175 238.92 178.235 237.67 177.295 237.52C170.065 236.32 161.645 238.1 154.335 238.52ZM192.995 238.47C191.815 238.51 191.775 239.92 192.965 239.99C201.905 240.53 210.895 240.15 219.855 240.18C221.615 240.19 221.665 237.95 219.905 237.92C210.935 237.72 201.925 238.16 192.995 238.47Z" fill="black"></path>
<path d="M61.0272 189.66C60.1952 189.468 59.4912 189.788 58.7232 189.916C56.6112 190.3 54.6912 191.132 53.0912 192.604C52.1312 193.564 51.2352 194.46 50.7232 195.804C50.0192 197.66 49.8272 199.516 49.8272 201.436C49.8272 202.588 49.7632 203.676 49.7632 204.828C49.6992 205.724 49.6992 205.724 48.8032 205.852L47.2672 206.044C46.4352 206.172 46.3072 206.364 46.4992 207.132C46.5632 207.388 46.8192 207.708 46.4992 207.964C46.0512 208.284 45.9872 208.668 46.3072 209.116C46.6912 209.564 47.2032 209.628 47.6512 209.308C48.2272 208.924 48.8032 208.924 49.4432 208.924C49.6352 209.436 49.5712 209.82 49.5712 210.204C49.5712 211.1 49.4432 211.996 49.6352 212.828C50.0832 215.324 49.5712 217.756 49.4432 220.124C49.3152 222.172 49.3792 224.156 49.4432 226.14C49.5072 228.124 49.6352 230.108 49.7632 232.092C49.8272 233.5 50.0832 234.78 50.7872 235.996C51.1712 236.572 51.5552 237.084 51.7472 237.724C51.9392 238.236 52.3232 238.812 52.8992 238.876C53.5392 238.94 54.0512 239.196 54.5632 239.772C55.2032 238.364 56.0352 236.764 55.7792 235.228C56.0992 235.228 56.1632 236.38 56.5472 236.252C56.5472 236.188 56.8032 235.804 56.8032 235.74C56.8032 231.9 56.6752 228.06 56.6112 224.22C56.5472 221.724 56.2912 219.228 56.1632 216.796C55.9712 213.916 56.3552 211.036 56.3552 208.156C56.3552 207.964 56.4832 207.58 56.9952 207.388C57.5712 207.132 58.1472 206.812 58.7872 206.812C60.3232 206.684 60.9632 205.404 61.5392 204.188C59.8752 203.996 58.4672 205.084 56.8032 204.764C56.8032 203.676 56.6752 202.524 56.9312 201.564C57.3792 199.58 57.6992 197.532 58.4032 195.612C58.9152 194.396 59.6832 193.628 60.8992 193.244C61.4752 193.052 62.1152 192.54 62.6912 192.412C63.2032 192.284 62.4992 191.388 62.2432 191.26C61.6032 191.004 61.0912 190.044 60.1312 190.748C60.0672 190.812 59.9392 190.812 59.8112 190.812C58.6592 190.748 57.6352 191.196 56.6752 191.836C56.4832 191.964 56.2912 192.22 56.0352 192.092C56.4192 191.644 56.6752 191.068 57.2512 190.812C57.5072 190.684 57.7632 190.492 58.1472 190.556C59.2992 190.62 60.4512 190.3 61.6032 190.044C61.4112 189.724 61.2192 189.724 61.0272 189.66Z" fill="black"></path>
<path d="M79.3717 204.764C78.7957 204.508 78.6677 205.212 78.2197 205.34C77.0037 204.444 76.8117 204.444 75.4677 204.956C74.9557 205.148 74.5077 205.34 73.9317 205.34C73.4837 205.34 73.4197 205.596 73.4197 205.916C73.7397 208.156 73.4837 210.332 73.4837 212.508C73.4197 215.836 73.7397 219.228 73.5477 222.556C73.5477 223.004 73.5477 223.452 73.2277 223.772C72.5877 224.604 71.9477 225.564 71.1797 226.332C70.5397 226.972 69.1317 227.292 68.6837 226.844C68.0437 226.268 67.4037 225.564 67.4677 224.668C67.5317 223.708 67.4037 222.748 67.3397 221.852C67.2757 220.444 67.5317 218.78 67.4677 217.372C67.4037 215.9 67.5317 214.364 67.5957 212.828C67.7877 210.524 68.0437 208.156 66.2517 206.172C65.6757 205.532 65.0357 204.892 64.2037 204.828C63.3077 204.7 62.3477 204.956 61.3877 204.956C60.6197 204.956 60.5557 205.724 60.6197 206.428C60.8757 208.412 60.2357 210.332 60.2357 212.38C60.2357 214.3 59.8517 216.284 60.4917 218.204C60.6837 218.716 60.7477 219.228 60.7477 219.804C60.4277 222.812 60.7477 225.756 61.5157 228.7C61.6437 229.276 61.8357 229.788 62.2837 230.172C63.3077 231.068 64.3957 231.772 65.8677 232.028C67.4037 232.284 68.7477 231.964 69.7717 230.876C70.5397 230.108 71.2437 229.34 71.9477 228.508C72.3317 228.06 72.5877 227.356 73.3557 227.356C73.4197 227.484 73.4837 227.612 73.4837 227.676C73.6757 229.532 74.1877 229.916 74.6997 230.556C75.1477 231.068 75.5957 231.388 76.1077 231.644C77.1957 232.092 77.8997 232.156 78.9877 232.668C79.6277 232.668 80.8437 232.796 81.4197 232.22C81.9317 231.708 81.6117 231.964 82.2517 231.644C82.8917 231.388 83.5317 231.196 83.9157 230.556C84.0437 230.364 84.2357 230.364 84.4277 230.364C84.8117 230.364 85.3237 229.852 85.6437 229.66C86.9237 228.188 87.4357 228.956 88.7797 227.356C89.2277 226.78 90.1877 226.332 89.6757 225.308C89.0997 225.308 88.6517 225.628 88.2677 225.884C85.8357 227.484 84.8117 227.996 82.4437 229.724C82.1237 229.98 81.9957 229.916 81.7397 229.98C80.5877 230.556 80.0117 229.66 80.0117 228.188C80.0117 226.716 80.1397 225.18 80.0757 223.708C80.0117 221.212 80.2037 218.78 80.1397 216.284C80.1397 215.708 80.0117 215.068 80.2037 214.492C80.5237 213.404 80.3317 212.38 80.1397 211.292C80.0117 210.652 79.8837 210.076 79.8197 209.436C79.6277 208.284 79.7557 207.132 79.6917 205.98C79.6917 205.532 79.8197 204.956 79.3717 204.764ZM67.5317 229.724C67.0197 230.108 66.5717 230.428 65.7397 230.172C66.6997 229.34 66.6997 229.34 67.5317 229.724Z" fill="black"></path>
<path d="M92.8797 204.188C92.0477 204.572 91.0877 204.764 90.1917 204.956C89.0397 205.148 87.9517 205.148 86.9277 205.916C86.7357 206.172 86.4797 206.3 86.2237 206.364C84.4957 206.748 83.8557 208.028 83.4077 209.5C82.7677 211.42 83.0877 213.788 84.4957 215.388C85.8397 216.732 87.5037 218.268 88.5277 219.868C89.6157 221.532 89.9357 223.9 89.7437 225.436C89.6157 226.268 88.9757 226.908 88.2717 227.548C87.6317 227.74 86.3517 227.74 85.5837 227.292C84.3677 227.1 83.7277 226.46 83.1517 226.204C82.5117 225.948 81.4237 224.796 81.6797 225.692C82.1917 226.268 83.3437 226.972 83.4077 227.548C83.4717 227.996 82.5757 227.1 82.0637 227.036C81.8717 227.036 81.9357 227.164 81.6797 227.1C81.1677 226.972 82.1277 227.676 82.1917 227.996C82.2557 228.188 81.3597 227.612 81.9357 228.572C82.4477 229.34 81.8717 229.276 83.5997 230.3C85.4557 231.324 85.1357 231.004 84.8157 231.068C84.3037 231.196 86.0317 231.58 86.7357 231.772C87.7597 232.092 89.4237 232.156 90.0637 231.9C90.2557 231.836 90.5757 231.772 90.8317 231.644C92.1117 231.068 94.4797 230.556 95.4397 228.7C96.1437 227.42 97.0397 226.14 97.3597 224.988C97.6797 223.26 96.9117 219.42 96.0157 217.884C95.3757 216.796 93.8397 215.004 92.4317 213.916C91.7917 213.468 89.9357 211.676 89.8077 210.972C89.8077 210.588 89.8077 210.14 89.7437 209.82C89.4237 208.604 90.7037 208.412 91.2157 207.644C91.5997 207.068 92.3677 206.94 93.0717 206.748C93.3277 206.684 93.6477 206.492 93.7117 206.428C94.6077 206.044 95.3757 205.468 94.9277 205.468C93.7117 205.468 95.6957 204.316 95.4397 204.316C94.5437 204.316 93.6477 203.804 92.8797 204.188ZM86.7357 215.068L87.8877 216.092L89.4877 218.14C89.9357 218.716 90.1917 218.972 90.1917 218.972C90.3197 219.228 90.1917 219.548 90.1917 219.804C89.8717 219.804 89.4877 219.292 89.1677 218.972L87.9517 217.116C87.6957 216.668 86.2877 215.004 86.7357 215.068Z" fill="black"></path>
<path d="M101.216 186.012C100.064 186.204 99.1037 186.716 98.4637 187.612C96.9917 189.66 97.3117 191.324 99.4237 192.412C99.9997 192.668 100.704 192.284 101.152 192.732C102.176 192.924 102.624 192.028 103.264 191.58C104.672 190.428 104.288 189.276 102.944 188.06C102.432 187.612 102.176 187.42 102.24 186.844C102.24 186.14 101.984 185.948 101.216 186.012ZM101.664 204.38C100.896 204.444 100.128 204.7 99.5517 205.212C99.2317 205.532 98.7197 205.98 98.7837 206.428C99.1037 207.772 98.6557 209.052 98.7837 210.332C98.9117 212.124 98.7837 213.916 98.5917 215.708C98.3997 217.756 98.3357 219.868 98.2717 221.916C98.2077 223.644 98.1437 225.372 98.3357 227.036C98.5277 228.316 98.5917 229.596 99.5517 230.62C99.8077 230.812 100.256 230.748 100.576 231.004C101.152 231.516 101.92 231.58 102.432 231.836C102.752 232.028 103.328 232.22 103.584 232.156C103.84 232.092 103.968 231.836 104.224 231.708C104.416 231.708 104.608 231.772 104.8 231.772C105.12 231.772 105.44 231.708 105.696 231.58L106.912 231.196C107.296 231.068 107.744 230.94 108.064 230.684C108.32 230.492 108.512 230.172 108.768 229.852C109.088 229.532 109.536 229.468 109.92 229.148C110.24 228.892 110.688 228.38 111.072 228.38C111.648 228.316 111.904 228.252 112.224 227.676C112.864 226.652 113.376 226.268 114.272 225.564C114.848 225.116 115.36 224.668 115.808 224.028C114.976 223.388 114.336 223.836 113.76 224.284C113.504 224.54 113.184 224.732 112.8 224.924C112.16 225.116 110.944 226.076 110.368 226.46C108.64 227.676 108.384 227.612 107.04 228.252C105.824 228.764 106.144 227.804 106.016 226.524C105.952 225.372 105.76 224.22 105.696 223.068C105.504 221.404 105.312 219.804 105.248 218.14C105.184 215.452 105.248 212.764 104.928 210.076C104.8 209.436 104.8 208.796 104.992 208.156C105.12 207.836 105.12 207.516 105.056 207.196C105.056 206.364 104.864 206.3 104.16 206.812C103.968 206.684 103.968 206.428 103.904 206.236C103.584 204.956 103.008 204.38 101.664 204.38Z" fill="black"></path>
<path d="M116.231 203.996C115.783 204.252 115.335 204.572 114.823 204.764C112.455 205.724 111.239 207.58 110.407 209.948C109.703 212.188 109.127 214.492 109.127 216.86C108.999 219.356 108.871 221.788 109.447 224.284C109.959 226.14 110.855 227.804 112.199 229.084C113.351 230.108 114.631 231.068 115.975 231.836C116.871 232.348 117.703 232.348 118.535 231.9C119.559 231.388 120.711 231.068 121.735 230.428C121.991 230.3 122.375 230.044 122.759 230.236C122.631 230.812 121.095 230.748 122.119 231.836C122.951 231.516 123.847 231.324 124.359 230.492C124.999 229.404 125.575 228.444 126.151 227.356C126.855 226.14 127.367 224.924 127.303 223.452C127.303 222.94 127.431 222.3 127.687 221.852C128.391 220.7 128.199 219.484 128.071 218.268C127.879 216.924 127.559 215.58 127.559 214.236C127.495 213.596 127.431 212.956 127.303 212.316C126.919 211.164 126.855 209.884 126.023 208.86C125.255 207.964 124.423 207.196 123.975 206.108C123.975 205.98 123.847 205.852 123.783 205.852C122.311 204.892 120.839 204.06 118.983 204.252C118.855 204.316 118.599 204.252 118.599 204.444C118.471 205.468 117.831 205.02 117.319 204.956C117.319 204.572 117.703 204.38 117.703 204.06C117.191 203.74 116.743 203.74 116.231 203.996ZM119.431 207.004C120.071 206.62 120.647 206.876 121.223 207.324C122.311 208.156 122.823 209.372 122.887 210.716L123.015 216.092C122.951 218.716 122.823 221.34 122.567 223.964C122.375 225.692 121.863 227.356 120.647 228.764C120.519 229.084 120.135 229.404 119.559 229.532C119.303 228.892 119.111 228.188 118.215 228.508C117.831 228.636 117.767 228.316 117.639 228.06C116.359 226.012 115.911 223.772 116.103 221.404C116.167 220.7 116.103 219.932 116.103 219.228C115.975 218.332 116.039 217.436 116.167 216.476C116.359 215.196 116.167 213.852 116.103 212.572C115.975 211.548 116.295 210.716 116.551 209.82C116.743 208.924 117.191 208.156 117.383 207.26C118.087 207.388 118.791 207.324 119.431 207.004ZM120.199 232.348C120.391 231.964 120.583 231.964 120.775 231.836C121.095 231.772 121.287 231.644 121.351 231.964C121.479 232.284 121.287 232.476 121.031 232.54C120.775 232.54 120.455 232.476 120.199 232.348Z" fill="black"></path>
<path d="M144.287 204.444C142.303 204.124 140.767 204.572 139.487 206.108C138.399 207.516 137.311 208.988 136.671 210.716C136.543 211.036 136.415 211.42 135.967 211.74C135.711 210.46 135.455 209.244 135.519 207.964C135.583 207.132 135.327 206.492 134.687 205.98C134.111 205.532 133.471 205.212 132.895 204.764C132.511 204.444 131.935 204.252 131.359 204.508C131.039 204.636 130.719 204.572 130.399 204.508C129.567 204.38 129.503 204.38 129.503 205.276V216.54C129.503 219.484 129.567 222.364 129.567 225.308C129.503 226.908 129.951 228.38 130.463 229.852C130.655 230.364 130.783 230.876 131.359 231.132C131.487 230.876 131.295 230.556 131.615 230.364C131.999 230.556 132.191 231.004 132.383 231.324C133.023 232.348 133.727 232.476 134.623 231.836C134.815 231.708 135.007 231.516 135.327 231.388C136.095 231.196 136.351 230.94 136.351 230.236C136.223 227.356 136.479 224.412 136.671 221.532C136.735 220.764 136.735 219.996 136.671 219.228C136.479 217.372 136.415 215.516 137.055 213.596C138.143 210.588 139.743 208.668 142.047 206.492C142.879 205.66 143.583 206.172 143.711 207.068C143.839 207.964 143.967 208.412 143.775 209.308C143.071 212.508 143.007 215.452 143.007 218.716C142.943 220.828 142.943 222.876 143.071 224.988C143.135 226.844 143.519 228.7 144.543 230.364C145.439 231.964 147.039 232.668 148.831 232.54C149.599 232.476 150.047 232.092 150.495 231.772C151.519 231.452 151.839 231.324 152.543 230.62C153.439 230.172 153.951 229.916 154.463 229.084C155.167 227.932 156.255 227.228 157.343 226.652C158.303 226.204 158.623 224.796 158.943 223.964C158.687 223.772 158.559 223.836 158.367 223.964C156.127 225.5 154.335 226.588 152.095 228.124C151.583 228.508 149.727 227.804 149.599 227.164C149.343 226.076 148.895 224.988 148.959 223.836C149.023 222.364 148.831 220.828 148.959 219.292C149.215 216.284 149.215 213.212 149.215 210.14C149.151 208.668 148.383 207.516 148.063 206.236L147.807 205.98C146.655 205.468 145.695 204.636 144.287 204.444Z" fill="black"></path>
<path d="M161.892 204.188C161.06 204.572 160.1 204.764 159.204 204.956C158.052 205.148 156.964 205.148 155.94 205.916C155.748 206.172 155.492 206.3 155.236 206.364C153.508 206.748 152.868 208.028 152.42 209.5C151.78 211.42 152.1 213.788 153.508 215.388C154.852 216.732 156.516 218.268 157.54 219.868C158.628 221.532 158.948 223.9 158.756 225.436C158.628 226.268 157.988 226.908 157.284 227.548C156.644 227.74 155.364 227.74 154.596 227.292C153.38 227.1 152.74 226.46 152.164 226.204C151.524 225.948 150.436 224.796 150.692 225.692C151.204 226.268 152.356 226.972 152.42 227.548C152.484 227.996 151.588 227.1 151.076 227.036C150.884 227.036 150.948 227.164 150.692 227.1C150.18 226.972 151.14 227.676 151.204 227.996C151.268 228.188 150.372 227.612 150.948 228.572C151.46 229.34 150.884 229.276 152.612 230.3C154.468 231.324 154.148 231.004 153.828 231.068C153.316 231.196 155.044 231.58 155.748 231.772C156.772 232.092 158.436 232.156 159.076 231.9C159.268 231.836 159.588 231.772 159.844 231.644C161.124 231.068 163.492 230.556 164.452 228.7C165.156 227.42 166.052 226.14 166.372 224.988C166.692 223.26 165.924 219.42 165.028 217.884C164.388 216.796 162.852 215.004 161.444 213.916C160.804 213.468 158.948 211.676 158.82 210.972C158.82 210.588 158.82 210.14 158.756 209.82C158.436 208.604 159.716 208.412 160.228 207.644C160.612 207.068 161.38 206.94 162.084 206.748C162.34 206.684 162.66 206.492 162.724 206.428C163.62 206.044 164.388 205.468 163.94 205.468C162.724 205.468 164.708 204.316 164.452 204.316C163.556 204.316 162.66 203.804 161.892 204.188ZM155.748 215.068L156.9 216.092L158.5 218.14C158.948 218.716 159.204 218.972 159.204 218.972C159.332 219.228 159.204 219.548 159.204 219.804C158.884 219.804 158.5 219.292 158.18 218.972L156.964 217.116C156.708 216.668 155.3 215.004 155.748 215.068Z" fill="black"></path>
<path d="M170.337 191.388C169.569 191.836 169.377 192.412 169.441 193.244C169.569 194.204 169.633 195.164 169.185 196.188C168.737 195.484 168.993 193.82 168.545 194.14C168.353 195.164 168.097 196.124 168.225 197.084C168.289 197.788 168.289 198.492 168.225 199.196C168.225 199.644 168.289 199.708 167.841 199.708C166.433 199.836 164.257 200.348 162.913 200.476C162.913 201.948 163.297 202.012 164.641 202.012C165.409 201.948 166.753 201.564 167.713 201.884C166.945 201.948 165.793 202.332 165.153 202.396C165.153 202.78 167.521 202.716 168.417 202.524C168.673 203.036 168.545 203.484 168.545 203.868C168.417 206.492 168.289 209.052 168.097 211.676C167.905 214.812 168.097 218.012 168.033 221.148C168.033 223.004 168.033 224.86 168.289 226.716C168.545 228.188 169.121 229.404 169.953 230.556C170.081 230.748 170.145 230.876 170.401 230.748C170.849 230.556 170.913 230.876 171.041 231.196C171.297 231.708 171.489 232.22 171.745 232.732C171.873 232.924 172.065 233.244 172.257 233.052C172.705 232.668 173.025 232.988 173.409 232.988C175.265 233.116 176.161 233.052 177.505 231.964C177.761 231.772 178.145 231.58 178.401 231.516C179.425 231.132 179.489 230.812 180.449 230.172C181.217 229.66 181.537 228.892 182.497 228.316C183.521 227.74 183.777 226.332 183.265 226.332C182.433 226.332 180.897 227.612 179.105 228.508L177.825 229.148C177.569 229.276 177.377 229.276 177.185 229.084C176.481 228.572 175.841 227.996 175.713 227.036C175.585 225.692 175.393 224.348 175.329 223.004C175.137 220.7 174.689 218.46 174.753 216.092C174.881 214.172 174.689 212.188 174.561 210.204C174.433 207.9 174.049 205.66 173.985 203.292C173.921 202.332 173.985 202.14 174.945 202.268C175.457 202.332 176.737 202.076 177.057 202.012C177.889 201.884 178.657 202.012 179.105 201.948C180.513 201.692 182.497 201.692 183.393 200.732C183.073 200.412 181.793 200.22 182.241 200.028C183.393 199.516 181.217 199.004 180.449 199.004C179.937 199.004 177.761 199.452 177.761 199.26C179.169 198.876 176.737 199.196 176.289 199.26C175.585 199.452 175.073 199.324 173.729 199.452C173.473 198.044 173.281 196.508 172.897 195.228C172.449 193.756 171.873 192.22 170.337 191.388ZM173.601 226.652C173.857 226.652 174.497 228.316 175.201 229.02C176.033 229.852 174.561 229.404 174.369 228.956C174.305 228.764 173.985 228.828 173.985 228.572C173.985 228.444 173.473 226.652 173.601 226.652Z" fill="black"></path>
<path d="M183.911 204.252C183.719 204.124 183.463 204.06 183.335 204.252C182.951 204.764 182.311 204.7 181.799 205.084C181.799 205.596 181.991 206.172 181.415 206.492C181.223 206.364 181.223 205.98 180.903 206.108C180.583 206.172 180.583 206.492 180.711 206.684C181.031 207.9 181.095 209.116 181.031 210.396C181.031 211.1 180.903 211.804 180.903 212.508C180.967 214.108 180.967 215.708 180.711 217.308C180.583 218.524 180.519 219.676 180.647 220.892C180.903 223.644 181.159 226.332 181.031 229.02C181.031 230.876 181.607 232.412 182.887 233.692H183.143C183.207 233.5 182.951 233.308 183.207 233.116C183.527 233.052 183.783 233.628 184.231 233.18C185.191 232.22 185.895 232.284 186.727 233.308C187.047 232.988 187.943 230.94 187.943 230.364C187.943 229.276 188.007 228.252 187.943 227.164C187.879 224.668 187.623 222.172 187.559 219.612C187.559 218.46 187.495 217.244 187.431 216.092C187.367 215.388 187.495 214.876 187.879 214.428C188.391 213.724 188.263 213.02 188.583 212.252C189.479 210.332 190.759 209.308 192.615 208.604L192.999 208.284C193.319 207.58 194.023 207.9 194.471 207.388C194.727 207.068 194.983 207.068 195.431 207.26C195.943 207.516 196.519 207.452 196.839 206.812C196.071 205.852 195.047 205.276 194.023 205.02C192.167 204.572 190.759 204.828 189.159 206.044C188.327 206.684 187.559 207.388 186.727 208.028C186.663 207.9 186.599 207.836 186.599 207.772C186.535 207.644 186.471 207.452 186.471 207.324C186.407 205.596 185.127 204.956 183.911 204.252ZM194.343 207.9C193.895 208.156 193.639 208.476 193.255 208.54L192.871 208.86C192.615 209.116 192.167 209.18 191.975 209.692C192.679 209.628 193.191 209.308 193.639 208.924C194.407 208.476 195.175 208.348 196.199 208.732C196.199 208.796 196.327 208.732 196.391 208.668C195.751 207.644 195.367 207.516 194.343 207.9Z" fill="black"></path>
<path d="M198.578 186.012C197.426 186.204 196.466 186.716 195.826 187.612C194.354 189.66 194.674 191.324 196.786 192.412C197.362 192.668 198.066 192.284 198.514 192.732C199.538 192.924 199.986 192.028 200.626 191.58C202.034 190.428 201.65 189.276 200.306 188.06C199.794 187.612 199.538 187.42 199.602 186.844C199.602 186.14 199.346 185.948 198.578 186.012ZM199.026 204.38C198.258 204.444 197.49 204.7 196.914 205.212C196.594 205.532 196.082 205.98 196.146 206.428C196.466 207.772 196.018 209.052 196.146 210.332C196.274 212.124 196.146 213.916 195.954 215.708C195.762 217.756 195.698 219.868 195.634 221.916C195.57 223.644 195.506 225.372 195.698 227.036C195.89 228.316 195.954 229.596 196.914 230.62C197.17 230.812 197.618 230.748 197.938 231.004C198.514 231.516 199.282 231.58 199.794 231.836C200.114 232.028 200.69 232.22 200.946 232.156C201.202 232.092 201.33 231.836 201.586 231.708C201.778 231.708 201.97 231.772 202.162 231.772C202.482 231.772 202.802 231.708 203.058 231.58L204.274 231.196C204.658 231.068 205.106 230.94 205.426 230.684C205.682 230.492 205.874 230.172 206.13 229.852C206.45 229.532 206.898 229.468 207.282 229.148C207.602 228.892 208.05 228.38 208.434 228.38C209.01 228.316 209.266 228.252 209.586 227.676C210.226 226.652 210.738 226.268 211.634 225.564C212.21 225.116 212.722 224.668 213.17 224.028C212.338 223.388 211.698 223.836 211.122 224.284C210.866 224.54 210.546 224.732 210.162 224.924C209.522 225.116 208.306 226.076 207.73 226.46C206.002 227.676 205.746 227.612 204.402 228.252C203.186 228.764 203.506 227.804 203.378 226.524C203.314 225.372 203.122 224.22 203.058 223.068C202.866 221.404 202.674 219.804 202.61 218.14C202.546 215.452 202.61 212.764 202.29 210.076C202.162 209.436 202.162 208.796 202.354 208.156C202.482 207.836 202.482 207.516 202.418 207.196C202.418 206.364 202.226 206.3 201.522 206.812C201.33 206.684 201.33 206.428 201.266 206.236C200.946 204.956 200.37 204.38 199.026 204.38Z" fill="black"></path>
<path d="M221.849 204.444C219.865 204.124 218.329 204.572 217.049 206.108C215.961 207.516 214.873 208.988 214.233 210.716C214.105 211.036 213.977 211.42 213.529 211.74C213.273 210.46 213.017 209.244 213.081 207.964C213.145 207.132 212.889 206.492 212.249 205.98C211.673 205.532 211.033 205.212 210.457 204.764C210.073 204.444 209.497 204.252 208.921 204.508C208.601 204.636 208.281 204.572 207.961 204.508C207.129 204.38 207.065 204.38 207.065 205.276V216.54C207.065 219.484 207.129 222.364 207.129 225.308C207.065 226.908 207.513 228.38 208.025 229.852C208.217 230.364 208.345 230.876 208.921 231.132C209.049 230.876 208.857 230.556 209.177 230.364C209.561 230.556 209.753 231.004 209.945 231.324C210.585 232.348 211.289 232.476 212.185 231.836C212.377 231.708 212.569 231.516 212.889 231.388C213.657 231.196 213.913 230.94 213.913 230.236C213.785 227.356 214.041 224.412 214.233 221.532C214.297 220.764 214.297 219.996 214.233 219.228C214.041 217.372 213.977 215.516 214.617 213.596C215.705 210.588 217.305 208.668 219.609 206.492C220.441 205.66 221.145 206.172 221.273 207.068C221.401 207.964 221.529 208.412 221.337 209.308C220.633 212.508 220.569 215.452 220.569 218.716C220.505 220.828 220.505 222.876 220.633 224.988C220.697 226.844 221.081 228.7 222.105 230.364C223.001 231.964 224.601 232.668 226.393 232.54C227.161 232.476 227.609 232.092 228.057 231.772C229.081 231.452 229.401 231.324 230.105 230.62C231.001 230.172 231.513 229.916 232.025 229.084C232.729 227.932 233.817 227.228 234.905 226.652C235.865 226.204 236.185 224.796 236.505 223.964C236.249 223.772 236.121 223.836 235.929 223.964C233.689 225.5 231.897 226.588 229.657 228.124C229.145 228.508 227.289 227.804 227.161 227.164C226.905 226.076 226.457 224.988 226.521 223.836C226.585 222.364 226.393 220.828 226.521 219.292C226.777 216.284 226.777 213.212 226.777 210.14C226.713 208.668 225.945 207.516 225.625 206.236L225.369 205.98C224.217 205.468 223.257 204.636 221.849 204.444Z" fill="black"></path>
<path d="M235.311 205.148C235.055 205.212 234.671 205.404 234.543 205.276C233.711 204.7 233.391 205.34 232.943 205.788C232.047 206.684 231.535 207.836 231.023 208.924C229.295 213.148 228.463 217.5 229.167 222.044C229.487 224.284 230.191 226.396 231.279 228.38C231.535 228.892 231.855 229.34 232.367 229.596C233.135 229.916 233.839 230.428 234.607 230.812C235.375 231.26 236.335 231.644 237.231 231.324L238.959 230.556C239.471 230.3 240.047 229.98 240.303 229.468C240.687 228.572 241.391 227.996 241.775 227.164C241.967 226.716 242.351 226.46 242.799 226.204C242.927 226.78 243.055 227.292 243.055 227.804C243.119 228.508 243.375 229.276 243.183 229.916C242.991 230.62 242.031 230.748 241.455 231.26C240.687 231.9 239.919 232.604 239.023 233.18C238.255 233.756 237.231 234.076 236.527 234.78C235.119 236.316 233.583 237.724 232.495 239.58C231.727 240.796 231.087 242.14 231.407 243.74C231.535 244.572 231.599 245.404 231.919 246.172C232.367 247.132 232.943 248.028 234.223 248.156C234.479 248.156 234.735 248.284 234.927 248.54C235.695 249.82 236.015 249.884 237.295 249.436C238.447 249.052 239.535 248.476 240.623 247.964C241.199 247.644 241.775 247.196 242.351 247.196C243.119 247.196 243.567 246.748 244.015 246.236C245.615 244.7 246.639 242.78 247.535 240.732C248.303 238.94 248.751 237.148 248.623 235.164C248.623 234.78 248.623 234.396 248.751 234.076C249.263 232.988 249.263 231.9 248.879 230.812C248.623 230.236 248.879 229.788 249.263 229.404C249.519 229.148 249.839 228.828 250.287 228.636C250.671 228.38 251.055 228.188 252.079 227.356C253.103 226.588 252.975 226.652 253.935 225.884C255.023 225.052 255.855 224.22 256.303 222.94C255.343 222.94 255.279 222.94 254.895 223.196C252.463 225.052 251.375 225.756 249.967 226.46C249.711 226.588 249.583 226.972 249.199 226.908C248.943 226.396 248.943 225.884 248.943 225.372C248.943 223.708 249.007 222.108 248.815 220.444C248.623 217.692 248.559 214.94 248.367 212.188L248.175 208.796C248.047 207.516 247.087 206.94 246.255 206.364C245.871 206.556 246.191 207.068 245.679 207.068L245.295 206.684C244.655 206.044 243.887 205.532 243.055 205.276C242.223 205.02 241.967 205.34 242.095 206.236C242.351 207.516 242.159 208.796 242.095 210.14C241.903 210.076 241.775 210.012 241.711 210.012C241.647 209.82 241.583 209.628 241.583 209.436C241.327 207.644 240.303 206.556 238.639 206.044C238.383 205.916 238.063 205.852 237.871 205.66C237.103 204.956 236.271 204.892 235.311 205.148ZM237.807 208.348C238.447 208.604 238.895 209.052 239.087 209.756C239.535 211.484 240.687 212.892 241.327 214.492C241.519 215.068 241.583 215.644 242.223 215.964C242.479 216.092 242.479 216.54 242.479 216.86L242.671 222.748C242.735 223.26 242.607 223.644 242.223 224.028C241.327 225.052 240.303 225.884 239.151 226.588C238.063 227.356 237.807 227.228 237.103 226.076C236.655 225.372 236.655 224.668 236.655 223.9C236.655 223.644 236.655 223.388 236.335 223.324C236.079 223.324 235.951 223.516 235.823 223.772C235.695 224.156 235.695 224.54 235.695 224.924C235.695 225.436 235.759 225.948 235.759 226.46C235.055 225.628 234.991 224.604 235.055 223.644C235.055 223.132 235.183 222.556 235.631 222.044C236.143 221.34 236.335 220.444 236.271 219.548C236.143 218.524 236.335 217.564 236.399 216.54C236.527 215.004 236.463 213.404 236.271 211.868C236.079 210.78 236.463 209.756 236.719 208.732C236.911 208.092 237.231 208.092 237.807 208.348ZM243.439 233.564C243.247 235.228 243.567 236.7 243.119 238.236C242.735 239.516 242.031 240.604 241.135 241.564C240.239 242.588 239.343 243.612 238.639 244.764C238.319 245.34 237.871 245.788 237.487 246.3C237.359 246.428 237.231 246.492 237.103 246.556C236.079 246.94 234.031 246.172 233.519 245.276C232.879 244.188 232.815 243.228 233.455 242.076C234.159 240.988 234.671 239.836 235.631 238.94C236.719 237.98 237.679 236.764 239.087 236.124C239.279 235.996 239.535 235.804 239.727 235.612C239.791 235.548 239.855 235.356 239.919 235.356C241.007 235.1 241.711 234.268 242.607 233.756C242.799 233.628 243.055 233.628 243.439 233.564Z" fill="black"></path>
<path d="M260.817 204.188C259.985 204.572 259.025 204.764 258.129 204.956C256.977 205.148 255.889 205.148 254.865 205.916C254.673 206.172 254.417 206.3 254.161 206.364C252.433 206.748 251.793 208.028 251.345 209.5C250.705 211.42 251.025 213.788 252.433 215.388C253.777 216.732 255.441 218.268 256.465 219.868C257.553 221.532 257.873 223.9 257.681 225.436C257.553 226.268 256.913 226.908 256.209 227.548C255.569 227.74 254.289 227.74 253.521 227.292C252.305 227.1 251.665 226.46 251.089 226.204C250.449 225.948 249.361 224.796 249.617 225.692C250.129 226.268 251.281 226.972 251.345 227.548C251.409 227.996 250.513 227.1 250.001 227.036C249.809 227.036 249.873 227.164 249.617 227.1C249.105 226.972 250.065 227.676 250.129 227.996C250.193 228.188 249.297 227.612 249.873 228.572C250.385 229.34 249.809 229.276 251.537 230.3C253.393 231.324 253.073 231.004 252.753 231.068C252.241 231.196 253.969 231.58 254.673 231.772C255.697 232.092 257.361 232.156 258.001 231.9C258.193 231.836 258.513 231.772 258.769 231.644C260.049 231.068 262.417 230.556 263.377 228.7C264.081 227.42 264.977 226.14 265.297 224.988C265.617 223.26 264.849 219.42 263.953 217.884C263.313 216.796 261.777 215.004 260.369 213.916C259.729 213.468 257.873 211.676 257.745 210.972C257.745 210.588 257.745 210.14 257.681 209.82C257.361 208.604 258.641 208.412 259.153 207.644C259.537 207.068 260.305 206.94 261.009 206.748C261.265 206.684 261.585 206.492 261.649 206.428C262.545 206.044 263.313 205.468 262.865 205.468C261.649 205.468 263.633 204.316 263.377 204.316C262.481 204.316 261.585 203.804 260.817 204.188ZM254.673 215.068L255.825 216.092L257.425 218.14C257.873 218.716 258.129 218.972 258.129 218.972C258.257 219.228 258.129 219.548 258.129 219.804C257.809 219.804 257.425 219.292 257.105 218.972L255.889 217.116C255.633 216.668 254.225 215.004 254.673 215.068Z" fill="black"></path>
<g clip-path="url(#clip0_2_7)">
<path d="M198.815 102.474C198.411 83.122 186.988 63.7773 168.741 56.3198C149.985 48.6609 126.706 53.8812 113.027 68.8111C88.3663 95.7252 102.059 141.648 137.606 150.486C160.02 156.056 185.555 143.587 194.91 122.49C197.717 116.174 198.956 109.32 198.815 102.474Z" fill="#E5DCD7"></path>
<path d="M200.121 138.807C200.181 138.8 200.248 138.785 200.308 138.777C200.808 138.084 201.293 137.383 201.764 136.667C201.54 136.712 201.316 136.749 201.092 136.794C199.725 137.077 198.359 137.368 196.97 137.517C193.708 136.175 190.445 134.832 187.182 133.497C181.904 131.342 176.617 129.217 171.339 127.069C165.985 124.884 160.64 122.692 155.286 120.492C151.038 118.754 146.797 117.001 142.556 115.264C140.936 113.653 139.301 112.057 137.688 110.439C136.247 109 134.821 107.545 133.403 106.084C132.962 105.629 132.559 105.144 132.119 104.682C131.073 103.57 130.035 102.467 128.938 101.408C128.893 100.319 128.848 99.2228 128.804 98.134C128.706 95.8147 128.594 93.5029 128.505 91.1836C128.445 89.6697 128.408 88.1558 128.363 86.642C131.208 85.7993 134.045 84.9491 136.882 84.0915C138.129 83.7186 139.368 83.3383 140.608 82.958C143.004 83.7783 145.408 84.6061 147.813 85.4189C153.599 87.3803 159.4 89.3043 165.179 91.2656C166.292 91.646 167.404 92.0337 168.517 92.4215C171.13 95.054 173.735 97.694 176.349 100.334C179.358 103.377 182.344 106.434 185.36 109.462C188.377 112.497 191.43 115.495 194.447 118.53C196.53 120.626 198.561 122.774 200.644 124.869C202.301 126.54 203.974 128.203 205.646 129.858C205.982 129.18 206.296 128.493 206.602 127.8C204.758 126.055 202.943 124.273 201.129 122.49C199.322 120.723 197.538 118.933 195.739 117.158C194.156 115.592 192.558 114.033 190.983 112.46C189.616 111.103 188.272 109.723 186.921 108.351C186.503 107.926 186.122 107.456 185.711 107.023C184.472 105.711 183.24 104.391 181.896 103.175C180.119 101.564 178.641 99.6479 176.871 98.0221C176.207 97.4106 175.505 96.8364 174.87 96.195C174.086 95.4045 173.31 94.6066 172.526 93.8086C174.057 94.3456 175.587 94.8751 177.118 95.3971C188.675 99.3346 200.293 103.093 211.843 107.038C211.895 106.352 211.94 105.666 211.97 104.98C210.357 104.331 208.722 103.742 207.05 103.175C200.614 101.005 194.208 98.7157 187.72 96.6947C183.785 95.4717 179.873 94.1591 175.96 92.869C173.795 92.1531 171.637 91.4297 169.48 90.7063C169.383 90.6019 169.278 90.505 169.181 90.4006C167.785 88.9836 166.381 87.5742 164.978 86.1647C162.387 83.5546 159.766 80.9743 157.213 78.3343C157.108 78.2299 157.011 78.1181 156.907 78.0062C159.684 77.1933 162.461 76.3879 165.239 75.5527C176.737 72.0924 188.183 68.4457 199.688 65.0152C199.27 64.4559 198.837 63.919 198.404 63.3746C196.53 63.7997 194.686 64.3068 192.827 64.8661C186.607 66.7528 180.358 68.5277 174.183 70.5711C170.443 71.809 166.672 72.9649 162.909 74.1358C160.423 74.9113 157.937 75.6645 155.451 76.4252C154.413 75.2842 153.368 74.1432 152.21 73.1066C151.053 72.07 150.12 70.7799 148.821 69.8775C148.634 69.7507 148.492 69.527 148.328 69.3555C147.88 68.8708 147.432 68.386 146.984 67.9013C145.662 66.4993 144.124 65.3284 142.892 63.8369C142.355 63.1881 141.795 62.5841 141.078 62.1068C140.645 61.8234 140.145 61.4431 139.906 61.0255C139.167 59.7502 138.009 58.9075 136.972 57.9381C135.867 56.9164 134.724 55.9395 133.657 54.8805C132.634 53.8663 131.686 52.77 130.446 52.0168C130.207 51.8677 130.006 51.6141 129.797 51.3978C128.901 50.4731 128.012 49.5409 127.116 48.6087C127.094 47.1023 127.042 45.5512 126.997 44C126.362 44.2461 125.727 44.4847 125.1 44.7457C125.123 45.3871 125.145 46.0284 125.167 46.6623C124.951 46.461 124.742 46.2596 124.533 46.0434C124.294 45.7973 124.055 45.5586 123.816 45.32C123.234 45.581 122.659 45.842 122.084 46.1179C123.137 47.1769 124.197 48.2284 125.257 49.2725C125.362 52.1212 125.466 54.97 125.563 57.8187C125.72 62.3976 125.854 66.9766 125.996 71.5629C126.041 73.047 126.086 74.5235 126.131 76.0076C126.004 75.9628 125.869 75.933 125.742 75.8883C122.091 74.6503 118.448 73.3751 114.797 72.1148C112.116 71.19 109.429 70.2802 106.741 69.363C103.911 68.4009 101.074 67.4464 98.2442 66.4769C97.8634 67.0213 97.4901 67.5657 97.1242 68.125C102.298 69.885 107.48 71.6226 112.654 73.3825C117.171 74.9188 121.688 76.4699 126.198 78.0137C126.265 80.3106 126.34 82.6075 126.414 84.9044C126.414 84.9939 126.422 85.0908 126.422 85.1803C123.6 86.0827 120.695 86.7165 117.88 87.6637C117.223 87.8874 116.566 88.1186 115.917 88.3497C115.499 87.9247 115.088 87.4996 114.67 87.0745C113.199 85.5756 111.713 84.0841 110.235 82.5851C107.495 79.8258 104.732 77.0889 102.03 74.2924C100.26 72.4578 98.6474 70.4965 96.7435 68.7813C96.736 68.7738 96.7211 68.7589 96.7136 68.7514C96.3403 69.3406 95.967 69.9297 95.6086 70.5338C97.9903 72.95 100.372 75.3737 102.754 77.7825C105.979 81.0489 109.242 84.2854 112.475 87.5518C112.953 88.0291 113.423 88.5138 113.901 88.9985C110.526 90.0128 107.144 90.9972 103.762 91.9965C101.156 92.772 98.5578 93.5551 95.9595 94.3381C95.0038 94.629 94.0481 94.9198 93.0925 95.2032C91.2632 94.4724 89.434 93.7415 87.6048 93.0032C87.5002 93.7266 87.4106 94.45 87.3285 95.1808C88.1573 95.5164 88.986 95.8594 89.8148 96.195C88.9263 96.4635 88.0378 96.732 87.1568 97.0004C87.0971 97.694 87.0373 98.3726 87 99.0587C88.874 98.4919 90.7481 97.9252 92.6221 97.3584C96.2656 98.8574 99.9092 100.341 103.605 101.728C107.151 103.056 110.675 104.473 114.2 105.867C117.283 107.09 120.359 108.336 123.443 109.566C124.727 110.081 126.019 110.595 127.303 111.11C127.624 119.365 128.049 127.606 128.288 135.869C128.318 136.928 128.445 137.994 128.482 139.053C128.572 141.992 128.654 144.93 128.744 147.875C128.326 147.965 127.908 148.047 127.489 148.114C124.637 148.547 121.778 148.942 118.918 149.367C116.82 149.673 114.722 149.993 112.617 150.314C111.713 150.448 110.802 150.59 109.899 150.732C110.578 151.284 111.258 151.828 111.96 152.35C113.976 152.037 115.984 151.724 118 151.418C121.599 150.873 125.205 150.336 128.804 149.807C128.863 151.425 128.923 153.036 129.005 154.654C129.117 156.929 129.199 159.211 129.281 161.485C129.804 161.664 130.319 161.851 130.842 162.015C130.887 161.195 130.931 160.374 130.961 159.554C130.984 158.995 130.991 158.428 130.954 157.869C130.857 156.377 130.685 154.886 130.64 153.387C130.603 152.104 130.603 150.821 130.61 149.539C131.058 149.471 131.506 149.404 131.954 149.337C136.471 148.666 140.988 148.01 145.506 147.324C150.023 146.638 154.532 145.899 159.049 145.213C162.155 144.743 165.269 144.341 168.375 143.871C168.382 143.878 168.397 143.893 168.405 143.901C169.159 144.669 169.987 145.377 170.749 146.145C174.124 149.568 177.476 153.014 180.896 156.392C181.396 156.101 181.896 155.81 182.389 155.505C182.337 155.452 182.284 155.408 182.24 155.363C180.911 154.013 179.641 152.611 178.365 151.209C176.573 149.233 174.706 147.324 172.72 145.534C171.996 144.878 171.272 144.221 170.577 143.535C179.141 142.215 187.69 140.761 196.261 139.486C197.045 139.806 197.829 140.12 198.628 140.403C198.755 140.448 198.874 140.5 199.001 140.545C199.427 139.993 199.845 139.434 200.256 138.874C200.203 138.844 200.159 138.822 200.121 138.807ZM154.816 78.655C155.831 79.6841 156.839 80.7058 157.855 81.7349C160.393 84.3003 162.954 86.8433 165.5 89.4013C162.558 88.4169 159.609 87.4548 156.668 86.463C154.062 85.583 151.464 84.6881 148.865 83.7858C148.059 83.5024 147.268 83.1742 146.461 82.8834C145.61 82.5776 144.751 82.2719 143.9 81.9661C147.148 80.9743 150.396 79.9824 153.651 78.998C154.039 78.8787 154.428 78.7669 154.816 78.655ZM120.105 89.1029C122.233 88.4691 124.369 87.8352 126.496 87.2013C126.638 90.8853 126.788 94.5768 126.915 98.2608C126.93 98.6709 126.937 99.0885 126.944 99.4987C125.541 98.0669 124.249 96.5232 122.771 95.1584C122.076 94.5022 121.345 93.8907 120.673 93.2195C119.583 92.1232 118.508 91.0121 117.432 89.9084C118.321 89.6399 119.209 89.3714 120.105 89.1029ZM124.085 107.791C120.494 106.33 116.925 104.801 113.333 103.332C107.547 100.975 101.746 98.6635 95.9371 96.3516C98.2292 95.6581 100.521 94.9571 102.821 94.271C107.01 93.0107 111.198 91.7653 115.379 90.5124C117.679 92.8466 119.986 95.1734 122.286 97.5076C123.861 99.1109 125.444 100.714 127.019 102.318C127.056 104.04 127.094 105.756 127.154 107.478C127.168 108.008 127.198 108.53 127.213 109.059C126.175 108.634 125.13 108.217 124.085 107.791ZM127.967 70.1907C127.893 69.2511 127.773 68.3189 127.743 67.3793C127.646 64.5678 127.587 61.7563 127.504 58.9448C127.445 56.8791 127.37 54.8059 127.303 52.7402C127.288 52.2405 127.265 51.7483 127.251 51.2487C127.609 51.5992 127.967 51.9572 128.318 52.3077C130.364 54.3286 132.44 56.3198 134.5 58.3259C134.799 58.6167 135.09 58.9299 135.389 59.2282C136.875 60.7272 138.338 62.2336 139.839 63.7102C141.422 65.2688 143.072 66.7677 144.639 68.3487C147.544 71.2646 150.426 74.1954 153.315 77.1262C153.226 77.156 153.136 77.1784 153.046 77.2082C150.142 78.1031 147.238 79.013 144.326 79.9004C143.176 80.2509 142.026 80.5865 140.876 80.9295C140.302 80.7431 139.727 80.5641 139.144 80.3851C135.867 79.4082 132.723 78.0137 129.446 77.0143C128.998 76.8801 128.55 76.7459 128.102 76.6191C128.005 74.4788 128.132 72.331 127.967 70.1907ZM128.221 78.7147C128.983 78.9757 129.737 79.2292 130.498 79.4902C132.85 80.2956 135.21 81.1085 137.561 81.9139C137.3 81.9885 137.031 82.0705 136.77 82.1526C135.986 82.3837 135.187 82.5627 134.396 82.7864C132.365 83.3532 130.334 83.9274 128.326 84.5837C128.333 84.1586 128.341 83.741 128.341 83.3159C128.326 81.7797 128.311 80.2434 128.221 78.7147ZM129.132 106.024C129.11 105.48 129.087 104.935 129.065 104.398C129.983 105.33 130.894 106.263 131.812 107.187C133.888 109.275 135.979 111.356 138.062 113.444C135.15 112.266 132.231 111.088 129.319 109.917C129.252 108.612 129.192 107.314 129.132 106.024ZM158.698 143.349C156.347 143.722 154.002 144.117 151.65 144.482C149.619 144.796 147.581 145.094 145.55 145.385C144.916 145.474 144.274 145.511 143.639 145.593C141.728 145.832 139.816 146.071 137.92 146.459C135.516 146.951 133.044 147.055 130.618 147.495C130.64 144.967 130.566 142.439 130.334 139.918C130.177 138.181 130.013 136.443 130.14 134.706C130.259 133.095 130.252 131.499 130.192 129.873C130.006 124.921 129.946 119.97 129.602 115.025C129.535 114.004 129.483 112.982 129.423 111.96C130.14 112.251 130.864 112.534 131.581 112.818C133.925 113.765 136.262 114.727 138.599 115.696C139.323 115.995 140.033 116.345 140.757 116.658C141.063 116.793 141.369 116.919 141.668 117.054C143.781 119.186 145.849 121.364 147.954 123.497C154.129 129.731 160.431 135.847 166.605 142.088C163.97 142.521 161.334 142.924 158.698 143.349ZM190.878 138.151C185.853 138.926 180.813 139.59 175.819 140.522C173.526 140.947 171.227 141.328 168.92 141.708C167.904 140.448 166.814 139.277 165.664 138.129C162.11 134.564 158.639 130.917 154.965 127.464C152.74 125.369 150.575 123.214 148.395 121.073C147.678 120.365 146.961 119.656 146.252 118.94C146.611 119.075 146.976 119.216 147.335 119.351C150.299 120.417 153.099 121.886 156.055 122.982C157.168 123.393 158.295 123.758 159.393 124.198C162.678 125.533 165.956 126.912 169.233 128.262C171.645 129.254 174.064 130.239 176.483 131.223C180.955 133.043 185.435 134.832 189.885 136.697C190.811 137.084 191.729 137.495 192.64 137.897C192.058 137.972 191.468 138.054 190.878 138.151Z" fill="#0D3025"></path>
</g>
<path d="M149.25 36.3333C149.25 36.7476 149.586 37.0833 150 37.0833C150.414 37.0833 150.75 36.7476 150.75 36.3333H149.25ZM150.75 19.6667C150.75 19.2525 150.414 18.9167 150 18.9167C149.586 18.9167 149.25 19.2525 149.25 19.6667H150.75ZM149.25 186.333C149.25 186.748 149.586 187.083 150 187.083C150.414 187.083 150.75 186.748 150.75 186.333H149.25ZM150.75 169.667C150.75 169.252 150.414 168.917 150 168.917C149.586 168.917 149.25 169.252 149.25 169.667H150.75ZM83.3333 103.75C83.7475 103.75 84.0833 103.414 84.0833 103C84.0833 102.586 83.7475 102.25 83.3333 102.25V103.75ZM66.6667 102.25C66.2525 102.25 65.9167 102.586 65.9167 103C65.9167 103.414 66.2525 103.75 66.6667 103.75V102.25ZM233.333 103.75C233.748 103.75 234.083 103.414 234.083 103C234.083 102.586 233.748 102.25 233.333 102.25V103.75ZM216.667 102.25C216.252 102.25 215.917 102.586 215.917 103C215.917 103.414 216.252 103.75 216.667 103.75V102.25ZM103.364 150.697C103.656 150.404 103.656 149.929 103.364 149.636C103.071 149.343 102.596 149.343 102.303 149.636L103.364 150.697ZM90.5529 161.386C90.26 161.679 90.26 162.154 90.5529 162.447C90.8458 162.74 91.3207 162.74 91.6136 162.447L90.5529 161.386ZM197.697 149.636C197.404 149.343 196.929 149.343 196.636 149.636C196.343 149.929 196.343 150.404 196.636 150.697L197.697 149.636ZM208.386 162.447C208.679 162.74 209.154 162.74 209.447 162.447C209.74 162.154 209.74 161.679 209.447 161.386L208.386 162.447ZM91.6136 43.553C91.3207 43.2601 90.8458 43.2601 90.5529 43.553C90.26 43.8459 90.26 44.3208 90.5529 44.6137L91.6136 43.553ZM102.303 56.3637C102.596 56.6566 103.071 56.6566 103.364 56.3637C103.656 56.0708 103.656 55.5959 103.364 55.303L102.303 56.3637ZM150.75 36.3333V19.6667H149.25V36.3333H150.75ZM150.75 186.333V169.667H149.25V186.333H150.75ZM83.3333 102.25H66.6667V103.75H83.3333V102.25ZM233.333 102.25H216.667V103.75H233.333V102.25ZM102.303 149.636L90.5529 161.386L91.6136 162.447L103.364 150.697L102.303 149.636ZM208.386 43.553L196.636 55.303L197.697 56.3637L209.447 44.6137L208.386 43.553ZM196.636 150.697L208.386 162.447L209.447 161.386L197.697 149.636L196.636 150.697ZM90.5529 44.6137L102.303 56.3637L103.364 55.303L91.6136 43.553L90.5529 44.6137ZM182.583 103C182.583 120.995 167.995 135.583 150 135.583V137.083C168.824 137.083 184.083 121.824 184.083 103H182.583ZM150 135.583C132.005 135.583 117.417 120.995 117.417 103H115.917C115.917 121.824 131.176 137.083 150 137.083V135.583ZM117.417 103C117.417 85.0047 132.005 70.4167 150 70.4167V68.9167C131.176 68.9167 115.917 84.1763 115.917 103H117.417ZM150 70.4167C167.995 70.4167 182.583 85.0047 182.583 103H184.083C184.083 84.1763 168.824 68.9167 150 68.9167V70.4167Z" fill="#FF5B2B"></path>
<defs>
<clipPath id="SvgjsClipPath1000">
<rect width="125" height="118" fill="white" transform="translate(87 44)"></rect>
</clipPath>
</defs>
</svg><style>@media (prefers-color-scheme: light) { :root { filter: none; } }
</style></svg>