<?xml version="1.0" standalone="no"?>
<!DOCTYPE svg PUBLIC "-//W3C//DTD SVG 20010904//EN"
 "http://www.w3.org/TR/2001/REC-SVG-20010904/DTD/svg10.dtd">
<svg version="1.0" xmlns="http://www.w3.org/2000/svg"
 width="700.000000pt" height="700.000000pt" viewBox="0 0 700.000000 700.000000"
 preserveAspectRatio="xMidYMid meet">
<metadata>
Created by potrace 1.14, written by Peter Selinger 2001-2017
</metadata>
<g transform="translate(0.000000,700.000000) scale(0.100000,-0.100000)"
fill="#000000" stroke="none">
<path d="M1586 5115 c-94 -33 -129 -81 -134 -179 -4 -82 13 -129 65 -178 63
-60 79 -63 420 -66 l311 -3 -19 -57 c-194 -562 -181 -1327 26 -1534 62 -62 96
-73 215 -72 176 1 384 56 581 154 l102 50 -6 -48 c-4 -26 -18 -123 -33 -217
-42 -270 -35 -373 31 -459 56 -73 176 -108 237 -68 97 64 149 220 263 796 41
209 76 380 78 381 305 198 535 318 633 332 37 5 42 3 47 -18 14 -50 6 -225
-13 -311 -41 -188 -119 -378 -185 -456 -43 -50 -88 -75 -167 -92 -105 -24
-122 -69 -67 -178 53 -107 196 -212 311 -228 105 -14 212 47 315 181 122 158
209 401 269 754 31 180 43 422 24 502 -44 188 -175 312 -361 341 -135 20 -303
-22 -538 -137 -73 -36 -134 -65 -136 -65 -1 0 8 51 20 113 13 61 31 163 41
225 l17 112 678 0 c452 0 695 4 729 11 106 23 185 117 184 219 0 62 -17 101
-65 148 -68 66 70 62 -1978 62 -1567 -1 -1862 -3 -1895 -15z m1784 -434 c0
-16 -120 -815 -125 -827 -5 -17 -253 -169 -375 -231 -116 -58 -194 -83 -210
-67 -23 23 -32 133 -27 329 8 288 45 485 135 713 l36 92 283 0 c165 0 283 -4
283 -9z"/>
<path d="M2556 2320 c-77 -24 -136 -92 -136 -157 0 -83 66 -128 355 -244 208
-83 287 -121 559 -271 402 -222 509 -265 554 -220 31 31 37 83 16 129 -10 21
-61 81 -113 133 -159 157 -404 321 -715 476 -243 121 -439 179 -520 154z"/>
</g>
</svg>
