<svg width="300" height="300" viewBox="0 0 300 300" fill="none" xmlns="http://www.w3.org/2000/svg">
<g clip-path="url(#clip0_283_41)">
<rect width="300" height="300" fill="#FF5B2B"/>
<path d="M272.736 150.146C271.728 101.766 243.169 53.4041 197.55 34.7603C150.662 15.6132 92.463 28.6638 58.2676 65.9886C-3.38502 133.274 30.8477 248.082 119.715 270.175C175.749 284.102 239.585 252.929 262.974 200.186C269.992 184.395 273.09 167.261 272.736 150.146Z" fill="#FFAE1B"/>
<path d="M111.655 200.325C115.855 200.325 122.505 202.542 131.605 206.975C140.705 211.525 149.047 216.658 156.63 222.375C164.097 228.208 167.83 232.525 167.83 235.325C167.83 238.125 166.722 239.525 164.505 239.525C162.872 239.525 160.363 238.65 156.98 236.9C153.597 235.267 148.93 232.758 142.98 229.375C136.913 225.992 132.363 223.542 129.33 222.025C126.297 220.625 122.388 218.992 117.605 217.125C112.705 215.375 109.147 213.742 106.93 212.225C104.713 210.708 103.605 209.075 103.605 207.325C103.605 205.575 104.48 203.942 106.23 202.425C107.863 201.025 109.672 200.325 111.655 200.325Z" fill="black"/>
<path d="M74.075 80H224.925C228.892 80 231.867 80.875 233.85 82.625C235.833 84.375 236.825 86.5917 236.825 89.275C236.825 91.8417 235.775 94.1167 233.675 96.1C231.692 97.9667 228.775 98.9 224.925 98.9H168.4C168.167 102.167 167.058 108.7 165.075 118.5C176.275 112.433 184.85 109.4 190.8 109.4C196.75 109.4 201.417 111.267 204.8 115C208.3 118.733 210.05 123.517 210.05 129.35C210.05 135.067 209.467 141.017 208.3 147.2C207.25 153.267 205.733 159.275 203.75 165.225C201.767 171.058 199.025 175.958 195.525 179.925C192.142 183.892 188.642 185.875 185.025 185.875C181.408 185.875 177.792 184.3 174.175 181.15C170.675 177.883 168.925 174.85 168.925 172.05C168.925 170.65 169.333 169.775 170.15 169.425C170.967 168.958 172.133 168.608 173.65 168.375C175.283 168.025 176.567 167.558 177.5 166.975C180.767 164.875 183.508 160.442 185.725 153.675C188.058 146.908 189.225 141.367 189.225 137.05C189.225 132.733 188.817 130.575 188 130.575C183.8 130.575 174.292 135.417 159.475 145.1C158.658 148.717 157.608 153.733 156.325 160.15C155.158 166.567 154.225 171.467 153.525 174.85C152.825 178.117 151.892 181.675 150.725 185.525C148.508 192.758 145.708 196.375 142.325 196.375C139.758 196.375 137.425 195.325 135.325 193.225C133.225 191.008 132.175 187.8 132.175 183.6C132.175 181.85 133.225 174.442 135.325 161.375C124.475 167.442 114.15 170.475 104.35 170.475C94.55 170.475 89.65 159.567 89.65 137.75C89.65 124.217 91.925 111.267 96.475 98.9H74.075C70.1083 98.9 67.1333 98.025 65.15 96.275C63.05 94.4083 62 92.0167 62 89.1C62 83.0333 66.025 80 74.075 80ZM112.575 136.35C112.575 144.05 113.217 147.9 114.5 147.9C118 147.9 126.225 143.642 139.175 135.125C139.758 131.275 141.567 119.2 144.6 98.9H120.275C115.142 109.75 112.575 122.233 112.575 136.35Z" fill="black"/>
</g>
<defs>
<clipPath id="clip0_283_41">
<rect width="300" height="300" fill="white"/>
</clipPath>
</defs>
</svg>
